<svg xmlns="http://www.w3.org/2000/svg" viewBox="0 0 64 64" role="img" aria-labelledby="title desc">
  <title id="title">SciPalette icon</title>
  <desc id="desc">A warm paper square with scientific palette swatches and a cypress-inspired mark.</desc>
  <rect width="64" height="64" rx="10" fill="#F8F5EC"/>
  <rect x="4" y="4" width="56" height="56" rx="7" fill="none" stroke="#212C33" stroke-opacity=".22" stroke-width="2"/>
  <rect x="13" y="43" width="7" height="9" rx="1.5" fill="#F8F5EC" stroke="#212C33" stroke-opacity=".2"/>
  <rect x="23" y="35" width="7" height="17" rx="1.5" fill="#BFA05A"/>
  <rect x="33" y="27" width="7" height="25" rx="1.5" fill="#6F8792"/>
  <path d="M46.5 14C43.7 23.5 42.3 35.5 42 52h9C50.4 35.5 49.7 23.5 46.5 14Z" fill="#4F6D5F"/>
  <path d="M46.5 14c.1 10.4-.9 23.1-3 38H51C50.4 35.5 49.7 23.5 46.5 14Z" fill="#212C33" fill-opacity=".18"/>
  <path d="M14.5 19.5c4.6-3.8 10-5.5 16.2-5" fill="none" stroke="#212C33" stroke-width="2.4" stroke-linecap="round"/>
  <circle cx="14.5" cy="19.5" r="2.9" fill="#BFA05A"/>
  <circle cx="22" cy="16" r="2.9" fill="#6F8792"/>
  <circle cx="30.7" cy="14.5" r="2.9" fill="#4F6D5F"/>
</svg>
